<?xml version="1.0" standalone="no"?>
<!DOCTYPE svg PUBLIC "-//W3C//DTD SVG 20010904//EN"
 "http://www.w3.org/TR/2001/REC-SVG-20010904/DTD/svg10.dtd">
<svg version="1.0" xmlns="http://www.w3.org/2000/svg"
 width="348.000000pt" height="348.000000pt" viewBox="0 0 348.000000 348.000000"
 preserveAspectRatio="xMidYMid meet">
<metadata>
Created by potrace 1.14, written by Peter Selinger 2001-2017
</metadata>
<g transform="translate(0.000000,348.000000) scale(0.100000,-0.100000)"
fill="#000000" stroke="none">
<path d="M2893 2885 c0 -8 4 -12 9 -9 5 3 6 10 3 15 -9 13 -12 11 -12 -6z"/>
<path d="M2619 2868 c-8 -25 -2 -51 13 -59 26 -14 18 -20 -31 -24 -29 -2 -39
0 -35 8 3 7 -2 3 -10 -7 -9 -11 -16 -23 -16 -28 0 -4 -5 -8 -11 -8 -5 0 -8 4
-5 9 3 5 -1 14 -8 20 -10 9 -16 9 -21 1 -4 -6 -1 -9 7 -8 8 2 12 -4 10 -14 -2
-10 2 -18 8 -18 6 0 1 -18 -10 -40 -13 -25 -25 -38 -32 -34 -7 5 -9 2 -6 -7 8
-20 -18 -79 -34 -79 -9 0 -9 3 2 10 13 9 13 12 0 23 -9 6 -14 21 -12 32 2 11
2 17 -2 14 -3 -3 -7 -14 -9 -25 -1 -10 -6 -26 -11 -34 -7 -12 -6 -13 5 -2 21
20 34 14 15 -7 -18 -20 -52 -18 -39 2 4 6 1 7 -7 2 -10 -6 -7 -12 10 -25 22
-17 22 -17 3 -31 -27 -19 -35 -36 -18 -36 8 0 11 5 8 10 -4 6 -1 7 7 2 8 -5
11 -4 7 1 -3 6 4 11 16 11 19 2 20 0 6 -10 -9 -7 -16 -15 -17 -20 0 -4 -3 -13
-5 -20 -4 -9 -6 -9 -6 1 -1 7 -6 10 -11 7 -8 -5 -7 -12 2 -23 11 -13 11 -14
-1 -8 -10 7 -12 3 -7 -15 3 -13 3 -18 0 -11 -3 6 -10 9 -16 6 -6 -4 -5 2 1 15
14 25 3 28 -15 4 -9 -12 -13 -14 -14 -5 0 7 -5 10 -10 7 -6 -4 -8 -11 -5 -16
4 -5 1 -9 -5 -9 -7 0 -9 8 -4 22 6 19 4 21 -7 11 -20 -16 -52 8 -42 32 5 14 3
16 -7 10 -8 -5 -11 -4 -6 3 3 5 1 12 -4 14 -6 2 -12 10 -13 19 -2 9 -11 28
-20 42 -10 15 -15 27 -12 27 4 0 -3 14 -15 30 -12 17 -18 30 -14 30 3 0 0 8
-7 17 -10 11 -10 14 -1 9 6 -4 12 -2 12 3 0 6 -7 11 -16 11 -9 0 -12 5 -8 12
5 8 2 9 -10 5 -10 -4 -19 -1 -23 8 -3 10 -9 12 -17 7 -15 -12 -46 -11 -46 1 0
6 -5 6 -12 0 -7 -6 -20 -10 -28 -10 -8 0 -19 -2 -25 -4 -5 -2 -11 1 -12 6 -2
6 9 10 24 10 27 0 42 18 24 30 -7 3 -8 0 -5 -9 4 -12 0 -14 -18 -10 -63 14
-74 14 -56 4 26 -16 11 -37 -25 -37 -18 0 -52 -3 -76 -7 -25 -3 -52 -1 -65 6
-19 10 -20 10 -8 -5 12 -14 11 -16 -8 -12 -12 2 -23 -2 -27 -10 -3 -8 -10 -12
-16 -8 -7 4 -8 0 -4 -11 5 -14 3 -17 -8 -12 -8 3 -14 0 -12 -7 1 -7 -4 -11
-11 -9 -8 1 -11 -2 -7 -8 5 -8 11 -7 21 1 12 10 14 8 10 -12 -3 -13 -5 -24 -6
-24 -2 0 -6 -27 -12 -72 -1 -7 -5 -10 -10 -7 -5 3 -5 10 -2 16 4 6 2 8 -3 5
-11 -7 -26 20 -18 32 2 4 -1 8 -8 8 -7 0 -13 -8 -13 -18 0 -10 3 -16 7 -13 4
2 13 -9 20 -25 7 -16 18 -27 24 -23 5 3 4 -2 -3 -11 -8 -9 -10 -22 -6 -28 5
-8 3 -9 -6 -4 -9 5 -10 2 -6 -13 4 -11 2 -23 -5 -27 -8 -6 -7 -10 2 -16 8 -5
9 -9 4 -9 -6 0 -12 -12 -13 -26 -1 -15 -6 -32 -11 -38 -5 -6 -7 -21 -5 -33 2
-13 -1 -23 -7 -23 -5 0 -8 4 -5 9 3 5 -1 12 -10 15 -8 3 -13 10 -9 15 3 5 1
13 -5 16 -16 10 -7 -17 17 -51 18 -26 20 -34 9 -43 -7 -6 -12 -21 -11 -34 2
-17 -3 -22 -20 -23 -16 -1 -22 3 -18 12 3 8 0 14 -7 14 -6 0 -9 4 -6 8 3 5 -1
9 -9 9 -13 0 -12 -4 2 -19 9 -10 12 -18 7 -18 -5 0 0 -7 10 -15 11 -8 17 -18
13 -21 -4 -4 -12 -2 -20 4 -9 8 -17 8 -27 0 -12 -8 -12 -9 2 -4 11 3 21 -2 28
-14 15 -28 12 -38 -5 -16 -8 11 -15 15 -15 10 0 -6 6 -16 13 -23 10 -11 9 -13
-5 -8 -16 6 -23 -3 -19 -25 2 -17 -39 1 -42 18 -3 13 -29 14 -44 3 -7 -6 -17
-8 -22 -5 -5 4 -13 1 -17 -5 -5 -8 -3 -9 6 -4 9 6 11 4 5 -4 -6 -10 -3 -11 13
-2 16 8 21 7 26 -5 9 -24 7 -27 -9 -14 -16 13 -35 6 -34 -13 0 -9 2 -9 6 1 2
6 9 12 14 12 6 0 8 -4 4 -9 -13 -23 15 -19 32 4 16 23 21 24 37 12 17 -12 17
-14 0 -28 -16 -12 -17 -12 -11 4 3 9 2 17 -3 17 -6 0 -10 -8 -10 -18 0 -10 -6
-19 -12 -20 -7 0 -24 -3 -37 -6 -13 -3 -21 -3 -17 1 3 3 1 12 -6 20 -6 7 -8
16 -5 20 4 3 2 12 -4 20 -6 7 -8 13 -4 13 4 0 2 7 -5 15 -7 8 -9 15 -5 15 5 0
1 8 -8 18 -8 9 -16 20 -16 25 -1 4 -2 10 -2 15 -4 27 -3 39 5 50 5 7 6 15 3
19 -4 3 -2 15 4 27 10 20 9 20 -5 3 -8 -11 -12 -25 -9 -33 3 -8 0 -14 -6 -14
-6 0 -10 3 -9 8 1 4 -5 21 -12 37 -7 17 -12 34 -11 39 1 5 -3 12 -9 16 -8 5
-6 9 5 13 10 4 14 3 9 -4 -4 -8 0 -8 14 0 27 14 35 28 17 28 -8 0 -12 -4 -10
-7 3 -4 -7 -7 -20 -7 -21 0 -31 8 -23 20 1 1 -4 12 -11 25 -10 19 -10 26 1 40
11 13 11 15 -4 9 -11 -4 -19 -1 -20 6 0 7 -2 17 -2 23 -1 6 -8 20 -16 30 -9
10 -10 15 -3 10 7 -4 21 -2 30 4 16 11 17 11 1 6 -21 -6 -53 23 -40 36 11 11
4 48 -10 48 -5 0 -4 -9 2 -20 6 -11 7 -20 2 -20 -11 0 -36 75 -29 87 7 11 -49
10 -60 -1 -5 -5 -2 -6 6 -1 10 6 12 4 7 -4 -6 -9 -14 -8 -32 4 -17 11 -23 12
-22 3 2 -8 -13 -12 -47 -13 -27 0 -55 -4 -62 -8 -6 -4 -14 -3 -18 3 -3 5 -3
10 2 10 4 0 0 5 -10 11 -9 6 -15 14 -13 18 3 4 -1 8 -9 8 -13 0 -13 -3 0 -17
8 -9 15 -22 15 -29 0 -7 -9 -3 -21 10 -11 13 -18 18 -14 12 3 -7 1 -13 -5 -13
-6 0 -8 -4 -5 -10 3 -5 1 -10 -4 -10 -6 0 -11 4 -11 10 0 5 -9 14 -20 20 -14
7 -20 7 -20 0 0 -5 7 -10 15 -10 8 0 15 -4 15 -10 0 -5 -4 -10 -9 -10 -5 0
-16 -3 -25 -6 -9 -3 -16 -1 -16 6 0 6 4 8 10 5 6 -4 7 1 3 11 -6 16 -8 15 -16
-4 -10 -22 -37 -31 -37 -11 0 5 5 7 12 3 7 -4 8 -3 4 5 -6 9 -11 9 -22 0 -7
-6 -11 -15 -8 -20 3 -5 -2 -9 -10 -9 -8 0 -18 -9 -21 -20 -3 -11 -10 -20 -15
-20 -5 0 -14 -10 -21 -21 -8 -15 -8 -19 0 -15 12 8 14 -4 3 -19 -4 -6 -21 -22
-39 -37 -25 -20 -29 -27 -17 -32 8 -3 13 -2 10 3 -7 11 32 46 41 38 3 -4 1 -7
-6 -7 -8 0 -11 -6 -7 -16 4 -10 2 -13 -6 -8 -8 5 -9 2 -5 -9 3 -9 2 -19 -4
-22 -5 -4 -7 -10 -4 -15 3 -4 -3 -7 -12 -5 -29 6 -29 6 -8 16 l20 9 -20 -3
c-11 -2 -19 -9 -17 -16 2 -9 -3 -11 -13 -8 -22 9 -18 -1 6 -14 15 -7 19 -8 15
0 -5 7 -1 8 10 4 11 -4 13 -8 6 -11 -7 -2 -9 -9 -6 -14 5 -7 2 -8 -6 -3 -10 6
-12 4 -7 -8 8 -20 -1 -47 -15 -47 -6 0 -5 7 2 15 10 13 11 18 1 28 -10 9 -11
8 -5 -6 5 -13 2 -16 -10 -11 -9 3 -14 10 -11 14 3 5 1 11 -4 14 -5 4 -8 -2 -7
-11 2 -9 8 -19 15 -21 9 -3 7 -9 -5 -23 -11 -12 -13 -19 -5 -19 7 0 9 -4 6
-10 -3 -5 0 -8 7 -7 7 2 10 2 5 0 -4 -3 -5 -8 -2 -13 3 -5 0 -14 -7 -22 -7 -7
-15 -22 -16 -33 -2 -11 -8 -22 -13 -23 -5 -2 -7 -7 -4 -12 3 -5 -2 -16 -11
-24 -9 -9 -11 -16 -4 -16 6 0 8 -5 3 -12 -4 -7 -8 -19 -10 -27 -1 -8 -8 -18
-15 -22 -7 -5 -9 -9 -4 -9 5 0 3 -7 -4 -15 -7 -8 -9 -15 -5 -15 4 0 3 -6 -3
-12 -6 -7 -12 -17 -14 -23 -1 -5 -6 -9 -10 -7 -5 1 -8 -2 -8 -8 0 -5 6 -10 13
-10 7 0 8 -3 2 -8 -5 -4 -11 -14 -13 -22 -5 -30 -25 -59 -36 -53 -6 4 -4 -2 4
-12 9 -12 10 -16 2 -11 -9 6 -11 1 -8 -18 3 -15 1 -24 -5 -21 -5 4 -6 11 -3
17 4 7 2 8 -5 4 -6 -4 -9 -12 -5 -17 3 -5 0 -17 -8 -26 -9 -12 -9 -15 0 -9 6
4 12 2 12 -3 0 -6 -4 -11 -9 -11 -5 0 -18 -3 -28 -6 -15 -6 -16 -4 -6 7 16 16
17 29 2 29 -5 0 -7 -5 -4 -10 3 -6 -3 -14 -14 -18 -19 -7 -19 -8 5 -19 13 -6
24 -7 24 -2 0 5 5 9 12 9 6 0 4 -8 -7 -20 -10 -11 -15 -26 -11 -36 5 -14 4
-15 -8 -5 -8 7 -13 18 -10 25 3 7 -2 13 -10 13 -13 0 -12 -6 4 -32 17 -27 18
-34 6 -50 -11 -15 -13 -16 -13 -1 0 9 4 16 9 16 5 0 3 7 -6 15 -19 20 -32 19
-16 0 12 -14 10 -15 -13 -11 -15 2 -29 1 -32 -4 -3 -5 3 -7 13 -5 10 2 25 -1
33 -6 8 -5 10 -9 5 -9 -5 0 -3 -7 4 -15 10 -12 10 -19 2 -27 -7 -7 -12 -20
-12 -31 0 -10 -4 -16 -9 -13 -5 3 -12 -1 -15 -10 -9 -23 -8 -26 7 -18 8 6 8 3
-1 -9 -8 -9 -11 -21 -7 -27 4 -6 1 -9 -7 -8 -7 2 -12 -3 -10 -11 2 -9 -3 -11
-14 -7 -14 5 -15 4 -4 -9 9 -11 10 -18 1 -28 -6 -8 -8 -16 -5 -20 3 -3 0 -16
-7 -29 -7 -12 -12 -27 -11 -31 1 -4 -5 -10 -13 -13 -8 -4 -15 -10 -15 -16 0
-5 4 -6 10 -3 6 3 7 -1 3 -10 -3 -9 -9 -13 -12 -8 -3 5 -14 1 -23 -9 -10 -10
-14 -18 -9 -18 5 0 11 -9 14 -20 5 -20 -2 -24 -33 -21 -8 1 -4 -5 10 -13 14
-9 19 -15 11 -16 -7 0 -11 -6 -7 -15 3 -8 1 -15 -3 -15 -5 0 -11 6 -14 13 -2
6 -4 -1 -4 -17 0 -19 2 -24 8 -15 6 10 9 8 10 -8 1 -13 2 -28 3 -35 0 -6 21
-18 46 -27 25 -9 47 -19 50 -22 3 -3 17 -5 32 -5 14 1 26 -1 26 -4 -2 -20 4
-30 12 -25 6 4 7 12 3 18 -4 7 0 6 10 -2 9 -7 17 -11 17 -8 0 3 16 -1 35 -9
20 -8 41 -12 47 -8 7 4 8 3 4 -4 -4 -7 7 -10 34 -9 35 2 41 0 37 -15 -3 -10
-1 -16 4 -12 5 3 9 12 9 20 0 13 13 19 34 15 5 -1 6 5 3 14 -4 8 -2 15 3 15
10 0 14 -15 11 -34 -1 -5 5 -4 13 4 17 13 22 25 8 16 -4 -2 -13 4 -20 15 -15
23 -4 25 25 4 14 -10 24 -12 28 -5 4 6 1 9 -7 8 -7 -2 -12 4 -10 14 3 20 -14
33 -24 17 -4 -8 -3 -9 4 -5 7 4 12 2 12 -4 0 -7 -5 -10 -11 -8 -6 2 -10 7 -10
11 1 4 1 14 1 22 0 8 9 15 20 15 11 0 20 5 20 11 0 5 -4 8 -9 4 -16 -10 -21
12 -6 25 8 7 12 16 9 21 -3 5 3 6 13 2 16 -6 16 -5 4 10 -8 10 -11 20 -7 24 3
3 6 0 6 -8 1 -10 4 -9 11 4 6 9 14 15 19 12 4 -3 11 2 14 11 5 13 9 14 21 4
19 -15 10 -31 -13 -24 -14 5 -15 4 -2 -5 11 -8 12 -11 2 -11 -7 0 -10 -5 -6
-12 4 -7 3 -8 -5 -4 -6 4 -9 11 -6 16 3 5 1 11 -4 14 -5 3 -11 -1 -15 -9 -7
-19 49 -51 60 -33 4 7 3 8 -4 4 -7 -4 -12 -1 -12 8 0 18 11 21 26 6 6 -6 15
-6 24 1 12 8 12 9 -4 7 -10 -2 -21 2 -23 9 -3 8 6 10 26 8 18 -2 34 2 41 11
17 19 27 18 32 -4 3 -10 12 -19 21 -19 9 0 14 4 11 9 -3 5 -10 6 -15 3 -10 -7
-12 6 -3 29 3 9 11 16 16 16 6 0 7 -7 4 -15 -3 -9 1 -18 9 -21 8 -4 13 -10 10
-14 -3 -5 5 -5 17 -2 19 5 20 7 6 10 -21 4 -24 22 -5 22 7 0 18 -5 25 -10 6
-6 10 -7 7 -4 -3 4 0 13 6 20 8 9 4 12 -14 10 -13 -2 -29 -6 -35 -10 -7 -4
-12 -3 -12 2 0 13 33 21 75 16 23 -2 33 1 29 7 -4 7 1 7 14 0 12 -6 23 -7 26
-2 7 11 24 9 50 -5 15 -9 16 -15 7 -32 -16 -29 -14 -34 10 -27 16 5 19 4 14
-5 -12 -19 -15 -61 -5 -55 5 3 6 13 3 23 -6 15 -5 15 10 3 23 -18 21 -26 -6
-40 -21 -11 -5 -8 31 6 15 6 15 5 4 -10 -10 -12 -11 -21 -3 -34 6 -11 11 -13
11 -5 0 7 5 10 11 6 7 -4 1 -15 -17 -29 -19 -15 -22 -22 -11 -22 9 0 14 4 11
9 -5 8 9 12 36 9 13 -2 13 -1 0 9 -13 10 -13 11 0 7 8 -2 15 -8 15 -13 1 -5 7
-20 14 -33 8 -14 9 -21 2 -17 -17 11 -13 -11 6 -30 17 -17 17 -17 1 -11 -10 3
-20 2 -24 -4 -4 -6 -12 -5 -22 3 -15 11 -15 11 -6 -2 6 -8 10 -23 9 -32 -2
-10 1 -18 7 -18 6 0 8 6 5 14 -3 8 1 20 9 27 13 10 14 8 10 -14 -3 -20 -1 -24
11 -20 11 4 11 8 3 13 -8 5 -8 10 -2 14 9 5 22 -13 27 -39 1 -5 3 -13 5 -17 1
-5 3 -11 5 -15 1 -5 5 -17 10 -28 32 -81 33 -83 22 -95 -9 -8 -7 -9 7 -4 13 5
17 4 12 -4 -4 -7 -1 -12 8 -12 8 0 24 -10 35 -21 l20 -21 -5 23 c-4 16 -3 20
3 12 7 -10 13 -10 29 2 10 8 24 14 29 15 6 0 4 -4 -4 -9 -9 -6 -4 -9 15 -9 33
0 84 24 84 39 0 6 -7 3 -16 -6 -9 -9 -23 -14 -31 -11 -8 3 -11 1 -8 -4 3 -6
-1 -10 -9 -10 -9 0 -16 5 -16 10 0 9 14 14 33 11 4 0 7 4 7 10 0 5 4 8 9 5 5
-3 14 1 21 9 6 7 19 11 27 8 10 -4 14 -2 10 4 -4 6 -1 11 6 10 34 -1 48 4 41
15 -4 6 -3 8 4 4 6 -3 13 -2 17 4 10 16 33 12 39 -8 3 -10 4 -8 3 7 -1 13 3
26 10 28 8 3 11 -3 8 -16 -2 -11 0 -23 5 -26 5 -3 7 3 5 14 -2 10 8 34 21 52
14 19 20 35 14 37 -5 2 -7 8 -4 13 3 6 11 5 20 -2 9 -7 14 -8 14 -1 0 6 -9 14
-20 17 -27 9 -25 24 3 19 12 -2 16 -2 9 2 -6 3 -9 10 -6 15 3 6 12 5 22 -3 14
-11 14 -9 -1 8 -20 25 -23 41 -3 25 10 -8 16 -9 21 -1 4 6 3 10 -2 9 -20 -4
-27 2 -13 12 13 9 13 10 -2 6 -16 -6 -36 9 -36 28 0 5 -9 13 -19 17 -15 7 -15
8 3 5 12 -3 28 -1 37 4 10 6 17 4 21 -6 3 -8 11 -15 18 -14 10 0 10 2 1 6 -19
7 -16 37 7 63 24 28 26 37 3 19 -15 -12 -16 -12 -8 1 5 8 10 20 10 25 0 6 4
30 9 54 5 29 11 39 16 30 5 -7 6 -18 2 -24 -12 -18 -13 -47 -1 -40 6 4 8 13 5
21 -3 8 1 17 10 21 11 4 12 8 4 13 -7 4 -12 20 -12 36 2 60 5 85 12 89 4 2 6
-7 4 -21 -2 -22 0 -24 14 -12 27 20 28 22 8 14 -13 -5 -17 -2 -13 9 4 8 2 17
-4 21 -11 7 -2 46 14 56 6 3 16 4 23 1 6 -2 15 0 19 6 4 7 0 8 -10 5 -10 -4
-15 -2 -13 7 2 9 -4 13 -17 11 -15 -2 -17 -1 -6 6 7 6 10 15 7 21 -11 17 4 13
22 -7 10 -10 14 -13 11 -7 -4 5 -7 23 -7 39 0 25 2 27 12 14 10 -14 13 -14 26
0 13 14 12 15 -3 9 -9 -3 -19 -2 -22 4 -9 13 -27 0 -22 -15 3 -7 -1 -13 -8
-13 -10 0 -11 5 -4 19 5 10 7 18 4 18 -3 0 0 10 7 23 7 12 11 28 10 35 -2 6 2
12 9 12 8 0 7 5 -2 17 -10 11 -10 14 -1 9 7 -4 12 -1 12 8 0 10 9 14 27 13 15
-1 28 4 31 12 3 9 0 11 -9 6 -12 -7 -12 -5 -1 6 11 12 14 12 22 -1 6 -9 5 -18
-3 -23 -8 -6 -6 -7 6 -3 10 3 21 6 24 6 3 0 0 7 -7 15 -7 8 -9 15 -6 15 4 0
14 -7 22 -15 9 -8 11 -15 5 -15 -6 0 -11 -4 -11 -9 0 -6 9 -8 21 -6 17 3 19 2
9 -10 -10 -12 -9 -16 4 -21 9 -3 13 -10 10 -15 -3 -5 0 -9 5 -9 6 0 11 -4 11
-10 0 -18 -17 -11 -29 13 -6 12 -9 14 -7 5 3 -11 0 -15 -9 -12 -7 3 -12 14
-10 25 3 12 0 17 -7 13 -7 -5 -8 -2 -3 6 6 9 4 11 -5 5 -9 -6 -11 -4 -4 6 5 9
-2 8 -20 -5 -18 -11 -25 -13 -21 -5 5 8 5 11 0 7 -4 -4 -14 -3 -22 3 -8 7 -13
8 -13 1 0 -5 12 -17 26 -27 14 -9 23 -19 20 -22 -3 -3 -12 0 -20 6 -10 8 -16
9 -21 1 -3 -6 -12 -7 -18 -3 -7 4 -6 0 2 -10 12 -15 9 -21 -11 -18 -5 0 -8 -3
-8 -8 0 -14 23 -19 45 -10 18 7 18 8 2 8 -10 1 -15 6 -12 11 4 6 11 8 16 4 13
-7 41 15 33 27 -3 5 -1 9 4 9 19 0 21 -14 5 -34 l-18 -21 24 20 c22 18 24 19
18 2 -4 -10 -7 -22 -7 -26 0 -4 -10 -7 -21 -7 -22 1 -36 -29 -19 -39 5 -3 7 4
5 16 -4 17 0 20 16 16 16 -4 23 0 26 14 5 16 8 18 15 7 8 -10 9 -9 4 4 -3 12
-1 15 10 11 8 -3 13 -8 10 -11 -3 -2 -1 -13 4 -22 7 -13 5 -21 -5 -30 -7 -6
-11 -18 -8 -26 4 -11 9 -12 16 -5 13 13 30 15 23 2 -3 -5 1 -12 10 -15 25 -9
27 -7 10 10 -9 8 -14 20 -11 25 4 5 2 9 -4 9 -5 0 -13 -4 -16 -10 -3 -5 -11
-10 -18 -10 -6 0 -2 10 10 21 20 20 23 21 37 6 9 -9 16 -20 15 -24 -3 -12 29
-81 41 -88 6 -4 8 -11 5 -16 -4 -5 -1 -9 6 -9 10 0 10 -3 2 -11 -14 -14 -6
-39 13 -39 8 0 14 -4 14 -9 0 -12 46 -20 62 -10 7 4 17 4 23 -1 7 -6 11 -2 12
12 1 12 7 24 13 28 7 4 11 10 11 14 -3 23 1 27 22 21 22 -7 22 -7 2 9 -12 9
-15 15 -7 16 7 0 11 3 9 8 -3 4 8 32 23 62 23 45 28 50 28 27 0 -17 -5 -24
-12 -20 -6 3 -3 -3 8 -15 19 -22 37 -21 35 1 0 9 -2 8 -6 -1 -2 -6 -9 -9 -14
-6 -16 9 10 34 29 27 13 -4 14 -3 4 5 -11 7 -11 12 2 25 11 10 13 18 5 22 -6
4 -8 13 -5 20 2 7 2 16 -2 19 -12 12 -10 35 4 47 8 6 11 15 8 20 -3 5 3 6 13
2 15 -6 16 -4 5 9 -9 11 -10 18 -2 23 6 3 8 10 5 15 -3 5 0 12 6 16 8 5 9 3 4
-6 -5 -8 -3 -11 6 -8 8 3 13 11 11 17 -1 7 2 10 7 7 5 -3 12 1 15 10 4 9 9 14
13 11 3 -4 1 -13 -6 -21 -9 -11 -7 -13 14 -13 13 0 22 3 19 8 -3 5 2 12 10 15
9 3 13 11 9 18 -3 6 -2 7 2 3 14 -12 14 -36 1 -31 -6 2 -12 -5 -13 -17 -2 -16
1 -18 11 -10 10 9 15 8 19 -3 4 -11 1 -13 -10 -9 -14 5 -14 3 1 -19 9 -13 13
-28 9 -31 -3 -4 -1 -7 6 -7 7 0 10 -10 7 -25 -3 -13 -1 -27 4 -30 4 -3 7 -13
5 -23 -1 -9 2 -23 8 -29 6 -9 6 -13 -2 -13 -10 0 -15 14 -12 33 1 5 -3 6 -9 2
-7 -4 -7 -12 0 -26 8 -13 7 -19 0 -19 -6 0 -14 10 -19 22 -8 21 -8 21 -13 -4
-4 -21 -2 -25 11 -20 14 5 14 4 1 -14 -11 -15 -11 -16 0 -6 19 16 30 15 30 -4
0 -9 -5 -12 -12 -8 -8 5 -7 0 2 -11 14 -17 13 -18 -5 -12 -20 7 -20 7 -1 -8
13 -10 15 -15 6 -15 -7 0 -11 -3 -7 -6 3 -3 14 -1 24 5 10 6 13 11 7 11 -12 0
-15 30 -2 30 4 0 9 -7 9 -15 2 -22 4 -29 10 -40 7 -13 4 -45 -6 -68 -7 -16 -9
-17 -25 -2 -15 13 -20 14 -26 3 -4 -7 -3 -10 1 -5 5 4 17 0 27 -10 16 -15 17
-18 3 -33 -13 -14 -13 -17 0 -17 8 0 12 4 9 9 -3 4 0 8 6 8 7 0 10 6 7 14 -3
8 2 20 11 27 14 11 15 11 5 -1 -7 -7 -9 -20 -4 -29 4 -9 7 -28 6 -43 -1 -16 1
-28 5 -28 4 0 7 -16 8 -35 1 -19 2 -43 3 -52 0 -10 3 -25 6 -33 3 -8 7 -33 9
-55 2 -22 5 -55 7 -72 3 -22 1 -31 -7 -27 -6 3 -4 0 4 -8 14 -13 17 -19 26
-62 2 -10 6 -21 9 -24 2 -3 0 -11 -5 -18 -8 -9 -5 -12 12 -13 44 -1 58 -4 58
-15 0 -6 7 -3 14 6 7 10 16 15 19 12 3 -3 15 -1 26 6 14 7 21 7 21 0 0 -5 -4
-10 -10 -10 -5 0 -10 -5 -10 -11 0 -8 4 -8 15 1 8 7 20 8 27 3 7 -4 25 -8 39
-9 20 0 25 4 21 18 -2 10 -8 18 -13 18 -5 0 -6 -8 -3 -17 5 -15 3 -15 -12 2
-14 17 -16 17 -11 2 8 -21 -6 -23 -22 -3 -10 12 -6 15 21 21 18 4 39 12 46 17
9 8 12 6 12 -6 0 -10 -4 -14 -10 -11 -6 4 -7 -1 -3 -11 4 -11 8 -13 11 -6 2 7
8 12 13 12 6 0 8 -4 5 -8 -3 -5 1 -9 9 -9 19 0 19 13 0 21 -8 3 -15 10 -15 16
0 7 6 8 18 1 12 -6 23 -6 33 1 11 8 11 9 -3 4 -10 -3 -19 -2 -22 2 -2 4 6 9
20 10 13 1 24 -3 24 -8 0 -6 4 -10 10 -10 5 0 7 8 4 18 -5 14 -3 14 11 -3 17
-20 17 -20 12 3 -5 23 8 31 16 10 3 -8 6 -6 6 4 1 15 8 17 41 14 22 -2 38 0
35 4 -3 5 -14 7 -24 5 -11 -2 -22 3 -25 11 -3 9 -1 12 4 9 7 -4 10 15 8 57 -1
35 1 68 5 75 4 6 1 18 -6 25 -11 11 -11 16 -2 25 7 7 16 9 20 5 4 -4 0 5 -10
20 -9 16 -22 25 -29 21 -6 -3 -8 -3 -4 2 4 4 3 17 -3 28 -8 14 -8 18 0 13 15
-10 14 7 -1 22 -7 7 -9 12 -5 12 3 0 2 12 -3 26 -7 16 -7 23 0 19 13 -8 13 1
-1 27 -9 16 -8 19 3 15 7 -2 12 -11 10 -18 -2 -9 4 -7 17 5 24 22 29 35 6 16
-15 -13 -21 -1 -7 15 4 6 3 7 -2 3 -14 -11 -36 -10 -36 2 0 5 3 9 8 8 4 0 18
4 32 10 14 6 18 11 9 11 -8 1 -20 -4 -27 -11 -9 -9 -12 -9 -12 1 0 7 -4 10 -8
7 -4 -2 -8 4 -8 15 0 19 8 23 36 19 10 -1 9 3 -5 14 -11 8 -24 15 -30 16 -5 0
-3 -5 5 -11 12 -8 12 -10 1 -7 -9 3 -16 21 -18 49 -3 56 -6 71 -17 88 -6 9 -5
12 1 8 6 -4 13 0 17 8 3 8 0 14 -7 12 -8 -1 -11 11 -11 35 1 24 -2 36 -9 31
-6 -3 -7 -1 -3 5 4 6 2 21 -4 32 -9 16 -8 18 5 14 8 -3 13 -9 11 -13 -2 -3 2
-15 10 -26 8 -10 14 -14 14 -9 0 6 -6 16 -12 23 -11 12 -10 13 6 7 14 -5 10 2
-11 23 -34 32 -37 64 -8 69 11 3 15 0 10 -7 -3 -6 -10 -9 -14 -7 -4 3 -8 -1
-8 -9 0 -8 7 -17 14 -19 8 -3 11 -1 8 4 -3 6 -3 16 2 23 16 25 12 38 -10 32
-21 -6 -22 -6 -3 9 11 9 15 16 9 16 -14 0 -34 -25 -26 -33 3 -4 1 -7 -5 -7 -6
0 -9 15 -7 40 2 22 0 38 -4 36 -13 -8 -5 72 9 88 9 12 10 20 3 27 -7 7 -12 5
-17 -6 -4 -10 -2 -14 6 -9 7 4 8 3 4 -4 -13 -22 -23 -12 -23 21 0 33 -8 70
-18 86 -3 5 0 13 6 17 8 4 9 3 5 -4 -4 -7 -2 -12 4 -12 7 0 10 7 7 15 -4 8 -2
17 3 20 6 4 11 1 11 -4 1 -6 2 -17 3 -23 1 -7 -5 -16 -14 -20 -11 -6 -10 -7 5
-5 21 2 26 21 13 49 -5 10 -3 18 5 21 6 2 -1 4 -18 4 -16 0 -24 -2 -17 -4 6
-3 10 -9 6 -14 -10 -16 -23 -9 -19 11 2 11 0 22 -6 25 -5 4 -7 17 -5 30 3 14
0 27 -5 31 -6 3 -5 11 2 21 8 9 9 17 3 21 -5 4 -10 13 -12 20 -2 10 2 10 17 0
11 -7 17 -16 14 -22 -4 -5 -1 -6 7 -1 9 5 5 13 -14 30 -14 12 -27 34 -28 49
-1 14 -5 26 -8 26 -3 0 -6 16 -7 35 -1 32 2 35 21 29 21 -6 21 -6 1 9 -11 8
-22 14 -26 12 -3 -2 -6 2 -6 10 0 11 9 10 36 -7 l35 -22 -43 43 c-33 33 -40
45 -31 56 8 9 8 15 0 18 -6 3 -5 4 2 3 7 -2 13 -7 13 -12 2 -36 32 -74 32 -39
0 8 -4 12 -8 10 -4 -3 -9 2 -13 10 -3 8 0 15 7 15 7 0 -3 10 -20 21 -38 24
-38 25 -17 33 8 3 12 2 9 -4 -3 -6 1 -7 9 -4 21 8 9 27 -13 21 -13 -3 -17 4
-18 32 -4 63 -8 86 -18 93 -5 4 -2 10 8 14 9 3 17 11 17 17 0 7 -4 7 -12 -1
-10 -10 -16 -8 -29 9 -10 13 -27 21 -45 21 -37 0 -48 7 -35 22 8 9 7 13 -3 13
-7 0 -13 -9 -12 -21 1 -17 -5 -20 -49 -20 -47 -1 -50 0 -48 24 2 22 2 23 -6 5
-5 -11 -7 -23 -5 -27 3 -4 0 -9 -6 -13 -5 -3 -10 -1 -10 4 0 6 -7 11 -15 11
-8 0 -15 -6 -15 -12 0 -8 -3 -9 -8 -3 -12 17 -47 41 -38 28 4 -7 4 -13 -1 -13
-17 0 -29 16 -27 38 1 18 -3 30 -7 20z m56 -68 c3 -5 1 -10 -4 -10 -6 0 -11 5
-11 10 0 6 2 10 4 10 3 0 8 -4 11 -10z m-245 -239 c0 -10 -7 -22 -16 -25 -10
-4 -13 -2 -7 7 4 6 8 15 9 20 3 15 4 17 9 17 3 0 5 -9 5 -19z m-84 -156 c1 -9
-4 -11 -14 -8 -10 4 -13 2 -8 -5 3 -6 2 -13 -3 -16 -5 -4 -8 2 -7 11 2 9 8 19
14 21 7 2 9 9 5 15 -3 7 -2 8 2 4 5 -4 10 -14 11 -22z m-1701 -105 c3 -5 1
-10 -4 -10 -6 0 -11 5 -11 10 0 6 2 10 4 10 3 0 8 -4 11 -10z m960 -158 c-9
-39 -13 -57 -15 -57 -1 0 -3 -12 -4 -27 0 -14 -4 -29 -8 -33 -4 -4 -4 -13 -1
-21 3 -9 -2 -14 -13 -15 -13 0 -14 -2 -5 -6 11 -4 11 -7 0 -13 -10 -7 -10 -12
1 -27 13 -17 13 -17 -5 0 -18 16 -20 16 -33 -5 -7 -13 -11 -16 -8 -7 5 17 -11
39 -28 39 -6 0 -5 -5 2 -12 7 -7 12 -16 12 -21 0 -5 -7 -2 -15 7 -9 8 -15 19
-14 23 4 22 -3 25 -17 7 -8 -10 -12 -13 -8 -5 3 7 0 18 -7 23 -11 8 -10 9 3 5
9 -3 19 0 22 8 2 7 13 12 23 11 18 -3 49 29 55 55 2 7 12 18 23 24 11 6 20 17
20 25 0 8 4 21 8 28 5 6 5 17 1 24 -4 7 -3 8 5 4 6 -4 9 -19 6 -34z m-117 -59
c-13 -16 -15 -16 -21 1 -4 10 0 14 13 13 14 -1 16 -4 8 -14z m-4 -159 c3 -8 2
-12 -4 -9 -6 3 -10 1 -10 -6 0 -7 -2 -10 -5 -7 -5 5 4 38 10 38 2 0 6 -7 9
-16z m66 -4 c0 -5 -4 -10 -10 -10 -5 0 -10 5 -10 10 0 6 5 10 10 10 6 0 10 -4
10 -10z m-50 -30 c-6 -11 -13 -20 -16 -20 -2 0 0 9 6 20 6 11 13 20 16 20 2 0
0 -9 -6 -20z m1101 -67 c-12 -20 -14 -14 -5 12 4 9 9 14 11 11 3 -2 0 -13 -6
-23z m17 -23 c-7 -10 -14 -17 -17 -15 -4 4 18 35 25 35 2 0 -1 -9 -8 -20z
m-613 -32 c-4 -58 -4 -58 -16 -58 -5 0 -7 5 -4 10 3 6 1 10 -4 10 -6 0 -11 5
-11 11 0 8 4 8 14 0 12 -10 14 -8 12 16 -3 25 2 53 9 53 1 0 1 -19 0 -42z
m556 19 c-10 -9 -11 -8 -5 6 3 10 9 15 12 12 3 -3 0 -11 -7 -18z m-511 -1 c0
-2 -7 -7 -16 -10 -8 -3 -12 -2 -9 4 6 10 25 14 25 6z m0 -36 c8 -5 11 -10 5
-10 -5 0 -17 5 -25 10 -8 5 -10 10 -5 10 6 0 17 -5 25 -10z m-1100 -44 c0 -3
-4 -8 -10 -11 -5 -3 -10 -1 -10 4 0 6 5 11 10 11 6 0 10 -2 10 -4z m1111 -53
c13 -16 12 -17 -3 -5 -9 8 -23 10 -29 6 -8 -4 -9 -3 -5 4 10 17 21 15 37 -5z
m-57 -21 c3 -5 -1 -9 -9 -9 -8 0 -12 4 -9 9 3 4 7 8 9 8 2 0 6 -4 9 -8z m478
-19 c-10 -4 -10 -8 -2 -18 13 -16 -3 -55 -22 -55 -6 0 -4 10 6 25 14 21 14 24
1 18 -10 -3 -15 0 -13 8 3 16 19 29 33 28 6 0 4 -3 -3 -6z m-332 -28 c0 -11
-29 -11 -33 -1 -4 10 1 12 14 9 10 -3 19 -7 19 -8z m-215 -105 c-3 -5 -12 -10
-18 -10 -7 0 -6 4 3 10 19 12 23 12 15 0z m-1665 -190 c0 -5 -2 -10 -4 -10 -3
0 -8 5 -11 10 -3 6 -1 10 4 10 6 0 11 -4 11 -10z m626 -32 c5 -7 3 -8 -5 -4
-7 5 -21 0 -31 -9 -15 -14 -23 -15 -34 -6 -11 9 -15 9 -18 -1 -3 -8 -7 -6 -11
5 -5 15 -1 16 28 13 19 -3 37 0 40 5 8 12 22 11 31 -3z m274 -19 c0 -5 6 -7
13 -3 6 4 9 3 4 -1 -13 -15 -46 -13 -40 2 6 16 23 17 23 2z m32 -26 c-10 -4
-10 -8 3 -17 8 -6 17 -20 19 -31 9 -43 11 -50 21 -57 6 -5 6 -8 -2 -8 -6 0
-15 5 -18 10 -4 6 -11 8 -16 5 -5 -4 -9 -2 -9 4 0 5 5 13 11 17 7 4 0 17 -18
36 -23 24 -25 30 -13 38 8 5 20 9 25 9 6 0 4 -3 -3 -6z m2003 -22 c3 -5 1 -12
-5 -16 -5 -3 -10 1 -10 9 0 18 6 21 15 7z m0 -60 c3 -5 2 -12 -3 -15 -5 -3 -9
1 -9 9 0 17 3 19 12 6z m-1440 -60 c-3 -6 3 -14 13 -20 11 -6 18 -19 17 -32
-2 -32 -20 -34 -33 -4 -7 15 -8 24 -2 20 5 -3 10 -2 10 4 0 5 -5 11 -12 13
-10 4 -4 28 8 28 3 0 3 -4 -1 -9z"/>
<path d="M1573 2089 c-6 -6 -9 -19 -6 -28 4 -9 3 -13 -2 -9 -13 12 -35 -12
-28 -29 4 -10 2 -14 -5 -9 -6 3 -13 2 -17 -4 -4 -6 -11 -8 -16 -5 -5 4 -9 0
-9 -7 0 -10 -3 -9 -11 2 -9 13 -10 13 -6 0 2 -8 12 -14 22 -12 9 2 14 -1 11
-7 -4 -5 -2 -12 3 -15 13 -8 42 4 36 14 -3 5 2 13 11 18 9 5 15 12 15 15 -1 4
0 8 0 10 1 1 2 13 3 27 1 14 5 31 9 38 10 15 5 16 -10 1z m-9 -60 c-3 -5 -10
-7 -15 -3 -5 3 -7 10 -3 15 3 5 10 7 15 3 5 -3 7 -10 3 -15z m-34 -29 c0 -5
-5 -10 -11 -10 -5 0 -7 5 -4 10 3 6 8 10 11 10 2 0 4 -4 4 -10z"/>
<path d="M1195 1180 c21 -24 26 -25 19 -6 -3 8 -13 17 -22 21 -13 5 -13 2 3
-15z"/>
<path d="M1774 1029 c-3 -6 -2 -15 3 -20 5 -5 9 -1 9 11 0 23 -2 24 -12 9z"/>
<path d="M2750 2866 c0 -2 7 -7 16 -10 8 -3 12 -2 9 4 -6 10 -25 14 -25 6z"/>
<path d="M2810 2866 c0 -2 7 -7 16 -10 8 -3 12 -2 9 4 -6 10 -25 14 -25 6z"/>
<path d="M2690 2835 c0 -8 4 -15 10 -15 5 0 7 7 4 15 -4 8 -8 15 -10 15 -2 0
-4 -7 -4 -15z"/>
<path d="M2782 2838 c-18 -18 -15 -24 12 -24 14 0 22 4 20 8 -3 5 -10 5 -16 2
-7 -5 -9 -1 -5 9 8 20 5 21 -11 5z"/>
<path d="M2817 2839 c7 -7 15 -10 18 -7 3 3 -2 9 -12 12 -14 6 -15 5 -6 -5z"/>
<path d="M2510 2805 c0 -7 30 -13 34 -7 3 4 -4 9 -15 9 -10 1 -19 0 -19 -2z"/>
<path d="M2586 2798 c3 -5 10 -6 15 -3 13 9 11 12 -6 12 -8 0 -12 -4 -9 -9z"/>
<path d="M1816 2781 c-3 -5 1 -14 9 -21 8 -7 15 -17 15 -22 0 -6 -7 -5 -15 2
-12 10 -15 10 -15 0 0 -7 -7 -10 -16 -6 -8 3 -13 2 -10 -3 7 -11 73 -8 83 4 5
4 2 5 -4 1 -12 -6 -18 5 -14 27 0 4 -5 6 -11 5 -7 -2 -12 3 -10 10 2 14 -4 16
-12 3z"/>
<path d="M2045 2780 c-3 -6 1 -7 9 -4 18 7 21 14 7 14 -6 0 -13 -4 -16 -10z"/>
<path d="M1777 2773 c-10 -9 -9 -23 1 -23 5 0 9 7 9 15 0 17 -1 18 -10 8z"/>
<path d="M1897 2769 c7 -7 15 -10 18 -7 3 3 -2 9 -12 12 -14 6 -15 5 -6 -5z"/>
<path d="M2071 2766 c-9 -10 -9 -16 -1 -21 6 -4 14 -4 17 -1 4 3 1 6 -7 6 -10
0 -10 3 0 15 7 8 10 15 7 15 -2 0 -10 -6 -16 -14z"/>
<path d="M1860 2760 c0 -5 5 -10 11 -10 5 0 7 5 4 10 -3 6 -8 10 -11 10 -2 0
-4 -4 -4 -10z"/>
<path d="M2125 2760 c-3 -6 1 -7 9 -4 18 7 21 14 7 14 -6 0 -13 -4 -16 -10z"/>
<path d="M2994 2758 c-4 -5 -3 -12 0 -15 3 -4 6 -1 6 6 0 7 4 10 9 6 5 -3 12
-2 15 3 3 5 -2 9 -10 9 -8 0 -17 -4 -20 -9z"/>
<path d="M1886 2742 c-3 -5 1 -9 9 -9 8 0 15 4 15 9 0 4 -4 8 -9 8 -6 0 -12
-4 -15 -8z"/>
<path d="M1925 2740 c3 -5 8 -10 11 -10 2 0 4 5 4 10 0 6 -5 10 -11 10 -5 0
-7 -4 -4 -10z"/>
<path d="M2490 2730 c12 -8 13 -11 1 -19 -8 -5 -9 -11 -3 -15 11 -7 25 21 16
35 -3 5 -11 9 -17 9 -7 0 -6 -4 3 -10z"/>
<path d="M2190 2720 c0 -5 5 -10 11 -10 5 0 7 5 4 10 -3 6 -8 10 -11 10 -2 0
-4 -4 -4 -10z"/>
<path d="M2439 2720 c-3 -20 -4 -25 -13 -40 -7 -12 -6 -13 4 -3 13 12 25 53
15 53 -3 0 -6 -4 -6 -10z"/>
<path d="M995 2709 c-4 -6 -5 -12 -2 -15 2 -3 7 2 10 11 7 17 1 20 -8 4z"/>
<path d="M3000 2716 c0 -2 7 -7 16 -10 8 -3 12 -2 9 4 -6 10 -25 14 -25 6z"/>
<path d="M860 2700 c-9 -6 -10 -10 -3 -10 6 0 15 5 18 10 8 12 4 12 -15 0z"/>
<path d="M1045 2700 c-3 -6 1 -7 9 -4 18 7 21 14 7 14 -6 0 -13 -4 -16 -10z"/>
<path d="M913 2679 c-2 -23 3 -25 10 -4 4 8 3 16 -1 19 -4 3 -9 -4 -9 -15z"/>
<path d="M1155 2690 c-4 -6 -11 -8 -16 -5 -5 4 -9 1 -9 -4 0 -16 16 -13 30 4
7 8 10 15 7 15 -3 0 -9 -5 -12 -10z"/>
<path d="M1235 2691 c-3 -5 -2 -12 3 -15 5 -3 9 1 9 9 0 17 -3 19 -12 6z"/>
<path d="M2186 2683 c2 -6 -2 -13 -9 -16 -8 -2 -8 -5 1 -11 7 -4 12 -2 12 4 0
6 4 9 8 6 5 -3 9 1 9 9 0 8 -4 12 -8 9 -4 -2 -9 -1 -12 3 -2 5 -2 3 -1 -4z"/>
<path d="M2236 2687 c3 -10 9 -15 12 -12 3 3 0 11 -7 18 -10 9 -11 8 -5 -6z"/>
<path d="M1070 2679 c0 -5 5 -7 12 -3 7 5 9 2 6 -8 -4 -8 0 -15 7 -15 10 0 11
5 4 19 -11 20 -29 24 -29 7z"/>
<path d="M2450 2668 c-10 -22 -10 -22 4 -4 8 10 20 15 27 10 8 -4 10 -3 5 4
-11 18 -24 14 -36 -10z"/>
<path d="M1043 2667 c0 -8 6 -14 14 -14 9 0 10 4 2 14 -6 7 -12 13 -14 13 -1
0 -2 -6 -2 -13z"/>
<path d="M3031 2667 c-8 -10 -7 -14 2 -14 8 0 14 6 14 14 0 7 -1 13 -2 13 -2
0 -8 -6 -14 -13z"/>
<path d="M770 2660 c0 -5 5 -10 11 -10 5 0 7 5 4 10 -3 6 -8 10 -11 10 -2 0
-4 -4 -4 -10z"/>
<path d="M999 2653 c-12 -16 -12 -17 2 -6 9 7 19 10 22 6 4 -3 7 -1 7 5 0 17
-16 15 -31 -5z"/>
<path d="M2195 2641 c-3 -6 -1 -11 5 -11 7 0 10 -6 7 -12 -2 -7 5 -25 15 -40
11 -16 16 -28 12 -28 -4 0 5 -13 21 -30 16 -17 23 -30 16 -30 -11 0 -11 -3 -1
-15 9 -11 17 -12 23 -6 6 6 17 7 26 1 12 -6 24 -2 41 11 18 13 19 17 6 13 -15
-6 -17 -3 -12 13 5 17 2 21 -19 21 -14 0 -25 -5 -25 -10 0 -5 -6 -3 -14 4 -8
7 -11 18 -8 23 2 6 -1 4 -9 -2 -17 -17 -37 -17 -21 -1 17 17 15 29 -4 26 -10
-2 -19 3 -22 11 -3 8 0 11 6 7 6 -3 14 -1 17 4 5 7 12 5 22 -7 13 -16 13 -16
3 5 -8 15 -15 20 -23 15 -11 -8 -19 -9 -44 -4 -5 1 -3 5 4 9 8 5 8 12 -2 25
-8 12 -15 14 -20 8z m120 -131 c5 8 11 5 20 -7 16 -22 8 -38 -11 -22 -11 9
-17 9 -28 0 -12 -10 -13 -8 -9 8 3 12 1 21 -6 21 -6 0 -11 5 -11 12 0 6 8 4
19 -6 13 -12 21 -14 26 -6z"/>
<path d="M2226 2638 c3 -5 10 -6 15 -3 13 9 11 12 -6 12 -8 0 -12 -4 -9 -9z"/>
<path d="M2446 2627 c3 -10 9 -15 12 -12 3 3 0 11 -7 18 -10 9 -11 8 -5 -6z"/>
<path d="M1646 2618 c3 -5 10 -6 15 -3 13 9 11 12 -6 12 -8 0 -12 -4 -9 -9z"/>
<path d="M2245 2620 c-3 -6 1 -7 9 -4 18 7 21 14 7 14 -6 0 -13 -4 -16 -10z"/>
<path d="M3046 2622 c-3 -5 1 -9 9 -9 8 0 12 4 9 9 -3 4 -7 8 -9 8 -2 0 -6 -4
-9 -8z"/>
<path d="M1679 2618 c-6 -13 -6 -58 -1 -58 4 0 8 14 8 30 1 25 -2 38 -7 28z"/>
<path d="M707 2599 c7 -9 10 -19 6 -22 -3 -4 -1 -7 5 -7 17 0 15 16 -5 31 -16
12 -17 12 -6 -2z"/>
<path d="M746 2593 c-6 -14 -5 -15 5 -6 7 7 10 15 7 18 -3 3 -9 -2 -12 -12z"/>
<path d="M2290 2601 c0 -6 4 -13 10 -16 6 -3 7 1 4 9 -7 18 -14 21 -14 7z"/>
<path d="M3028 2593 c7 -3 16 -2 19 1 4 3 -2 6 -13 5 -11 0 -14 -3 -6 -6z"/>
<path d="M1262 2561 c-11 -6 -10 -10 4 -15 9 -3 19 -4 22 -1 3 3 0 5 -7 5 -7
0 -9 5 -6 10 7 12 4 12 -13 1z"/>
<path d="M2301 2554 c0 -11 3 -14 6 -6 3 7 2 16 -1 19 -3 4 -6 -2 -5 -13z"/>
<path d="M2326 2557 c3 -10 9 -15 12 -12 3 3 0 11 -7 18 -10 9 -11 8 -5 -6z"/>
<path d="M2365 2550 c-16 -7 -17 -9 -3 -9 9 -1 20 4 23 9 7 11 7 11 -20 0z"/>
<path d="M3056 2547 c3 -10 9 -15 12 -12 3 3 0 11 -7 18 -10 9 -11 8 -5 -6z"/>
<path d="M680 2539 c-13 -9 -12 -10 3 -5 11 3 17 0 17 -9 0 -8 5 -15 10 -15 7
0 7 6 0 20 -12 23 -11 23 -30 9z"/>
<path d="M1615 2529 c-4 -6 -5 -12 -2 -15 2 -3 7 2 10 11 7 17 1 20 -8 4z"/>
<path d="M676 2507 c3 -10 9 -15 12 -12 3 3 0 11 -7 18 -10 9 -11 8 -5 -6z"/>
<path d="M1285 2500 c-3 -5 -2 -10 4 -10 5 0 13 5 16 10 3 6 2 10 -4 10 -5 0
-13 -4 -16 -10z"/>
<path d="M1624 2499 c-4 -7 -3 -9 4 -5 6 3 15 -1 20 -10 8 -15 10 -14 16 2 4
10 4 15 0 11 -4 -4 -13 -2 -20 4 -8 7 -14 6 -20 -2z"/>
<path d="M657 2493 c-10 -9 -9 -23 1 -23 5 0 9 7 9 15 0 17 -1 18 -10 8z"/>
<path d="M1317 2477 c4 -6 0 -8 -10 -4 -9 3 -19 2 -21 -2 -5 -7 14 -8 47 -2
13 2 7 18 -8 18 -8 0 -11 -5 -8 -10z"/>
<path d="M1615 2470 c-3 -6 1 -7 9 -4 18 7 21 14 7 14 -6 0 -13 -4 -16 -10z"/>
<path d="M1330 2450 c-9 -6 -10 -10 -3 -10 6 0 15 5 18 10 8 12 4 12 -15 0z"/>
<path d="M1640 2450 c8 -5 11 -12 7 -16 -3 -4 -13 -2 -20 4 -10 9 -14 8 -14
-3 0 -8 4 -12 8 -10 4 3 10 -2 13 -11 4 -12 2 -15 -9 -11 -8 4 -18 1 -22 -6
-9 -15 -16 -53 -7 -45 3 3 6 12 7 20 3 14 9 18 29 18 6 0 3 -9 -7 -20 -14 -16
-16 -23 -7 -32 9 -9 12 -9 13 0 2 14 5 30 9 37 1 3 3 13 4 23 1 9 5 23 9 30
10 14 1 32 -16 32 -7 0 -6 -4 3 -10z"/>
<path d="M636 2433 c-6 -14 -5 -15 5 -6 7 7 10 15 7 18 -3 3 -9 -2 -12 -12z"/>
<path d="M3026 2423 c1 -14 9 -30 16 -34 10 -7 10 -9 0 -9 -10 0 -10 -5 -2
-20 6 -11 16 -20 23 -20 9 0 8 3 -1 9 -15 9 -13 41 3 54 6 5 3 7 -7 3 -10 -3
-20 -1 -23 4 -4 6 -1 10 4 10 16 0 13 17 -3 23 -9 4 -12 -2 -10 -20z"/>
<path d="M1306 2422 c-2 -4 -1 -14 5 -22 6 -11 9 -12 9 -2 0 7 4 10 10 7 6 -3
7 1 4 9 -7 17 -20 21 -28 8z"/>
<path d="M1346 2418 c3 -4 9 -8 15 -8 5 0 9 4 9 8 0 5 -7 9 -15 9 -8 0 -12 -4
-9 -9z"/>
<path d="M620 2380 c8 -5 20 -10 25 -10 6 0 3 5 -5 10 -8 5 -19 10 -25 10 -5
0 -3 -5 5 -10z"/>
<path d="M1320 2380 c-13 -8 -13 -10 2 -10 9 0 20 5 23 10 8 13 -5 13 -25 0z"/>
<path d="M3074 2382 c4 -3 14 -7 22 -8 9 -1 13 0 10 4 -4 3 -14 7 -22 8 -9 1
-13 0 -10 -4z"/>
<path d="M576 2338 c3 -5 10 -6 15 -3 13 9 11 12 -6 12 -8 0 -12 -4 -9 -9z"/>
<path d="M1376 2334 c-3 -9 -13 -14 -20 -11 -19 8 -28 -19 -11 -33 10 -8 15
-8 21 1 4 7 3 9 -4 5 -6 -3 -13 -2 -16 3 -3 5 3 11 14 14 10 3 21 0 23 -7 2
-6 4 1 4 17 1 31 -2 34 -11 11z"/>
<path d="M1556 2342 c-3 -5 1 -9 9 -9 8 0 12 4 9 9 -3 4 -7 8 -9 8 -2 0 -6 -4
-9 -8z"/>
<path d="M596 2313 c-6 -14 -5 -15 5 -6 7 7 10 15 7 18 -3 3 -9 -2 -12 -12z"/>
<path d="M3060 2326 c0 -2 7 -6 15 -10 8 -3 15 -1 15 4 0 6 -7 10 -15 10 -8 0
-15 -2 -15 -4z"/>
<path d="M1575 2300 c4 -8 15 -23 23 -32 17 -20 10 -23 -21 -7 -19 8 -20 8 -7
-3 8 -7 15 -19 15 -27 0 -8 6 -15 13 -17 7 -1 8 0 2 3 -5 2 -10 9 -10 14 0 6
3 8 8 6 4 -3 12 0 17 7 7 8 1 20 -19 41 -16 17 -26 23 -21 15z"/>
<path d="M576 2278 c3 -5 10 -6 15 -3 13 9 11 12 -6 12 -8 0 -12 -4 -9 -9z"/>
<path d="M3085 2280 c-3 -6 1 -7 9 -4 18 7 21 14 7 14 -6 0 -13 -4 -16 -10z"/>
<path d="M607 2255 c3 -8 9 -12 14 -9 12 7 11 11 -5 17 -10 4 -13 1 -9 -8z"/>
<path d="M3045 2261 c-3 -5 -1 -12 4 -15 5 -4 8 -17 5 -31 -2 -13 0 -26 6 -30
6 -4 7 1 4 12 -5 16 -4 16 10 -1 9 -11 16 -15 16 -9 0 6 -7 17 -16 24 -14 12
-14 14 3 20 16 7 16 8 1 8 -11 1 -15 6 -12 16 7 16 -11 21 -21 6z"/>
<path d="M586 2246 c4 -9 1 -16 -6 -16 -10 0 -10 -3 -1 -14 10 -12 8 -17 -7
-25 -11 -6 -23 -7 -27 -3 -4 4 -2 -3 4 -15 13 -25 26 -29 37 -11 5 8 2 9 -9 5
-24 -9 -21 0 11 29 15 14 21 22 13 19 -10 -6 -11 -2 -7 13 4 11 2 23 -3 27 -7
3 -8 0 -5 -9z"/>
<path d="M1399 2233 c-13 -16 -12 -17 4 -4 9 7 17 15 17 17 0 8 -8 3 -21 -13z"/>
<path d="M1431 2213 c7 -12 15 -20 18 -17 3 2 -3 12 -13 22 -17 16 -18 16 -5
-5z"/>
<path d="M1496 2222 c-3 -4 4 -9 15 -9 23 -2 25 3 4 10 -8 4 -16 3 -19 -1z"/>
<path d="M1375 2201 c0 -9 4 -22 9 -29 4 -6 4 -12 0 -12 -4 0 1 -9 12 -21 10
-12 18 -23 17 -25 -2 -2 -1 -4 2 -4 3 0 13 0 23 0 11 0 6 7 -16 20 -18 11 -30
25 -27 30 3 5 15 0 25 -10 11 -11 26 -20 33 -19 9 0 9 2 -1 6 -6 2 -10 9 -7
14 4 5 -2 6 -12 2 -10 -3 -15 -2 -11 2 5 5 -1 15 -12 22 -11 8 -18 18 -15 23
3 4 -1 10 -8 13 -8 3 -13 -2 -12 -12z"/>
<path d="M1410 2201 c0 -6 4 -13 10 -16 6 -3 7 1 4 9 -7 18 -14 21 -14 7z"/>
<path d="M1467 2199 c7 -7 15 -10 18 -7 3 3 -2 9 -12 12 -14 6 -15 5 -6 -5z"/>
<path d="M1513 2186 c0 -15 22 -15 34 0 4 5 4 6 -1 2 -5 -4 -14 -3 -21 2 -8 7
-12 5 -12 -4z"/>
<path d="M545 2133 c4 -15 2 -23 -6 -23 -7 0 -10 -3 -6 -6 3 -3 12 -2 20 3 14
7 14 10 0 28 -15 20 -15 20 -8 -2z"/>
<path d="M3153 2125 c0 -8 4 -12 9 -9 5 3 6 10 3 15 -9 13 -12 11 -12 -6z"/>
<path d="M1500 2126 c0 -2 7 -9 15 -16 9 -7 15 -8 15 -2 0 5 -7 12 -15 16 -8
3 -15 4 -15 2z"/>
<path d="M513 2085 c0 -7 7 -11 14 -8 20 8 12 -18 -12 -40 -20 -18 -19 -18 8
-1 15 9 25 19 22 22 -3 3 3 15 12 26 10 12 11 16 4 9 -9 -8 -20 -9 -31 -3 -12
6 -17 5 -17 -5z"/>
<path d="M3110 2086 c0 -2 7 -7 16 -10 8 -3 12 -2 9 4 -6 10 -25 14 -25 6z"/>
<path d="M3097 2069 c7 -7 15 -10 18 -7 3 3 -2 9 -12 12 -14 6 -15 5 -6 -5z"/>
<path d="M486 2045 c-11 -8 -15 -15 -9 -15 6 0 16 7 23 15 16 19 11 19 -14 0z"/>
<path d="M3080 2056 c0 -3 9 -10 20 -16 11 -6 20 -8 20 -6 0 3 -9 10 -20 16
-11 6 -20 8 -20 6z"/>
<path d="M506 2005 c-14 -13 -26 -28 -26 -32 0 -4 7 0 15 11 8 11 19 15 27 10
7 -4 10 -4 6 1 -4 4 -3 14 3 22 18 21 4 15 -25 -12z"/>
<path d="M3122 2000 c-15 -25 -15 -30 0 -30 6 0 8 3 5 7 -4 3 -2 12 5 20 6 7
9 15 7 18 -3 2 -10 -5 -17 -15z"/>
<path d="M492 1953 c-5 -10 -7 -25 -5 -33 3 -8 -4 -4 -15 9 -14 18 -21 21 -27
11 -5 -8 -4 -11 2 -7 6 4 13 0 16 -7 3 -8 1 -17 -6 -20 -7 -2 -1 -3 13 -2 16
2 24 9 24 20 -1 9 1 16 5 16 4 0 8 7 8 15 0 20 -4 19 -15 -2z"/>
<path d="M3094 1946 c3 -16 10 -34 16 -40 8 -8 9 -6 4 7 -4 13 -2 16 9 11 8
-3 18 -1 22 5 3 6 0 9 -8 5 -9 -3 -22 5 -31 18 l-17 23 5 -29z"/>
<path d="M416 1947 c3 -10 9 -15 12 -12 3 3 0 11 -7 18 -10 9 -11 8 -5 -6z"/>
<path d="M433 1884 c0 -7 5 -10 10 -7 6 4 8 -1 4 -11 -4 -10 -3 -15 3 -11 14
9 12 32 -3 38 -8 3 -14 -1 -14 -9z"/>
<path d="M3173 1851 c0 -11 5 -18 9 -15 4 3 5 11 1 19 -7 21 -12 19 -10 -4z"/>
<path d="M420 1854 c0 -6 7 -19 16 -30 14 -18 14 -18 3 6 -14 31 -19 36 -19
24z"/>
<path d="M3142 1765 c3 -3 16 -8 28 -10 12 -2 20 -1 16 2 -4 4 -16 8 -28 10
-12 2 -19 1 -16 -2z"/>
<path d="M2540 1730 c-17 -13 -19 -19 -10 -25 9 -6 7 -12 -10 -25 -13 -10 -25
-25 -26 -35 -1 -9 0 -14 3 -11 3 3 12 -2 21 -10 13 -14 17 -13 36 10 20 26 66
44 66 26 0 -5 -7 -15 -15 -24 -23 -22 -18 -28 8 -11 13 8 26 13 29 10 3 -3 8
1 12 10 4 12 0 19 -14 22 -11 3 -20 9 -20 14 0 5 6 7 13 5 6 -1 9 -1 4 1 -4 3
-5 8 -2 13 7 11 -32 44 -54 45 -11 1 -29 -6 -41 -15z m78 -39 c-12 -19 -41
-25 -35 -7 3 6 11 10 18 8 8 -2 10 0 6 5 -5 4 -10 6 -11 3 -2 -3 -10 1 -18 7
-12 10 -15 10 -15 -2 0 -8 4 -12 9 -9 12 7 -3 -28 -22 -53 -17 -22 -18 -22
-35 -3 -15 17 -16 20 -3 25 8 3 21 5 28 3 7 -2 15 4 17 12 4 13 3 13 -7 0 -10
-13 -11 -13 -7 1 3 9 0 22 -6 29 -9 10 -9 11 1 6 6 -4 12 -2 12 4 0 7 7 10 15
7 8 -4 17 -2 21 4 4 6 13 4 24 -6 15 -13 16 -21 8 -34z m32 -35 c0 -2 -7 -7
-16 -10 -8 -3 -12 -2 -9 4 6 10 25 14 25 6z"/>
<path d="M2584 1718 c-4 -7 -4 -10 1 -6 4 4 15 2 24 -5 14 -11 14 -10 2 6 -16
20 -18 21 -27 5z"/>
<path d="M2517 1649 c7 -7 15 -10 18 -7 3 3 -2 9 -12 12 -14 6 -15 5 -6 -5z"/>
<path d="M3170 1715 c0 -8 2 -15 4 -15 2 0 6 7 10 15 3 8 1 15 -4 15 -6 0 -10
-7 -10 -15z"/>
<path d="M3134 1665 c0 -18 4 -21 26 -16 25 5 25 5 2 9 -17 3 -21 7 -13 16 8
9 7 13 -2 13 -7 0 -13 -10 -13 -22z"/>
<path d="M1973 1655 c0 -8 4 -12 9 -9 5 3 6 10 3 15 -9 13 -12 11 -12 -6z"/>
<path d="M311 1647 c-8 -10 -7 -14 2 -14 8 0 14 6 14 14 0 7 -1 13 -2 13 -2 0
-8 -6 -14 -13z"/>
<path d="M358 1642 c-3 -12 -2 -20 3 -16 5 3 9 0 9 -7 0 -6 -8 -9 -18 -7 -15
4 -18 -1 -19 -30 -1 -27 1 -32 9 -19 5 10 6 22 2 29 -5 7 -2 9 8 5 10 -3 19 3
27 19 6 14 7 23 2 20 -5 -4 -11 2 -13 11 -3 15 -5 14 -10 -5z"/>
<path d="M2575 1639 c-11 -16 -1 -19 13 -3 7 8 8 14 3 14 -5 0 -13 -5 -16 -11z"/>
<path d="M3153 1618 c-11 -19 -13 -39 -2 -32 6 3 8 -6 5 -21 -4 -23 -3 -25 10
-14 13 10 13 15 -1 35 -13 21 -13 24 3 33 9 6 12 11 5 11 -6 0 -15 -6 -20 -12z"/>
<path d="M2621 1611 c-11 -7 -9 -10 8 -16 26 -8 49 4 30 16 -17 11 -21 11 -38
0z"/>
<path d="M2510 1602 c0 -6 9 -12 20 -15 11 -3 20 -3 20 -1 0 2 -9 8 -20 14
-11 6 -20 7 -20 2z"/>
<path d="M2550 1606 c0 -2 7 -7 16 -10 8 -3 12 -2 9 4 -6 10 -25 14 -25 6z"/>
<path d="M2601 1568 c5 -10 11 -18 12 -18 2 0 3 8 3 18 0 10 -6 19 -13 19 -8
0 -9 -6 -2 -19z"/>
<path d="M3187 1579 c7 -7 15 -10 18 -7 3 3 -2 9 -12 12 -14 6 -15 5 -6 -5z"/>
<path d="M295 1569 c-4 -6 -5 -12 -2 -15 2 -3 7 2 10 11 7 17 1 20 -8 4z"/>
<path d="M2090 1571 c0 -7 -4 -9 -10 -6 -5 3 -10 1 -10 -4 0 -6 4 -11 9 -11
13 0 25 20 17 27 -3 4 -6 1 -6 -6z"/>
<path d="M2515 1559 c-3 -4 2 -6 10 -5 21 3 28 13 10 13 -9 0 -18 -4 -20 -8z"/>
<path d="M305 1540 c-4 -6 -1 -9 6 -8 6 2 14 -3 17 -11 3 -8 0 -11 -7 -7 -6 4
-11 2 -11 -3 0 -19 19 -12 31 12 6 12 8 19 4 15 -5 -4 -14 -3 -21 3 -8 7 -14
7 -19 -1z"/>
<path d="M3170 1537 c-18 -14 -24 -37 -10 -37 6 0 10 6 10 14 0 8 6 16 13 19
6 2 10 7 7 10 -3 3 -12 0 -20 -6z"/>
<path d="M279 1535 c-1 -3 -2 -11 -3 -17 -1 -7 -8 -11 -16 -10 -8 2 -12 0 -7
-4 4 -4 18 -9 30 -11 12 -2 17 0 11 4 -6 5 -10 16 -8 26 2 15 -4 25 -7 12z"/>
<path d="M1966 1518 c3 -5 10 -5 16 -2 7 5 9 1 5 -9 -4 -10 -2 -14 7 -11 21 8
14 30 -10 30 -12 0 -20 -4 -18 -8z"/>
<path d="M2586 1518 c3 -5 10 -6 15 -3 13 9 11 12 -6 12 -8 0 -12 -4 -9 -9z"/>
<path d="M2050 1499 c0 -5 5 -7 10 -4 6 3 10 8 10 11 0 2 -4 4 -10 4 -5 0 -10
-5 -10 -11z"/>
<path d="M2424 1503 c4 -7 3 -13 -2 -13 -6 0 -12 -6 -15 -14 -4 -9 2 -13 16
-12 27 1 32 19 10 37 -11 9 -14 10 -9 2z m16 -23 c0 -5 -5 -10 -11 -10 -5 0
-7 5 -4 10 3 6 8 10 11 10 2 0 4 -4 4 -10z"/>
<path d="M2610 1501 c0 -6 4 -13 10 -16 6 -3 7 1 4 9 -7 18 -14 21 -14 7z"/>
<path d="M2115 1490 c-4 -6 -12 -7 -18 -4 -7 4 -8 3 -4 -1 13 -15 34 -14 34 1
0 17 -4 18 -12 4z"/>
<path d="M3188 1493 c7 -3 16 -2 19 1 4 3 -2 6 -13 5 -11 0 -14 -3 -6 -6z"/>
<path d="M2144 1468 c0 -12 4 -14 12 -7 8 6 15 0 24 -21 13 -32 27 -40 27 -15
0 8 -4 12 -8 9 -7 -4 -25 34 -22 46 1 3 -6 6 -16 6 -9 0 -17 -8 -17 -18z"/>
<path d="M297 1465 c3 -8 9 -12 14 -9 12 7 11 11 -5 17 -10 4 -13 1 -9 -8z"/>
<path d="M273 1452 c16 -18 16 -20 -2 -44 -20 -25 -13 -48 13 -48 6 0 4 5 -4
10 -9 6 -10 10 -3 10 7 0 17 9 23 20 12 22 -3 55 -29 65 -11 4 -11 1 2 -13z
m21 -45 c-3 -8 -12 -18 -20 -21 -11 -4 -10 0 3 18 20 26 27 28 17 3z"/>
<path d="M2466 1458 c3 -5 10 -6 15 -3 13 9 11 12 -6 12 -8 0 -12 -4 -9 -9z"/>
<path d="M3236 1462 c-3 -5 1 -9 9 -9 8 0 12 4 9 9 -3 4 -7 8 -9 8 -2 0 -6 -4
-9 -8z"/>
<path d="M1922 1437 c-10 -11 6 -47 21 -47 7 0 3 22 -6 38 -5 6 -4 12 0 12 5
0 15 -6 23 -12 12 -11 12 -10 1 5 -16 20 -25 21 -39 4z"/>
<path d="M2415 1440 c3 -5 8 -10 11 -10 2 0 4 5 4 10 0 6 -5 10 -11 10 -5 0
-7 -4 -4 -10z"/>
<path d="M2637 1439 c7 -7 15 -10 18 -7 3 3 -2 9 -12 12 -14 6 -15 5 -6 -5z"/>
<path d="M2685 1443 c3 -3 -3 -12 -12 -18 -15 -11 -15 -15 -4 -29 7 -9 17 -14
21 -11 9 5 7 52 -3 60 -4 3 -5 2 -2 -2z m2 -38 c0 -8 -4 -12 -9 -9 -4 3 -8 9
-8 15 0 5 4 9 8 9 5 0 9 -7 9 -15z"/>
<path d="M3170 1439 c0 -5 5 -7 10 -4 6 3 10 8 10 11 0 2 -4 4 -10 4 -5 0 -10
-5 -10 -11z"/>
<path d="M256 1423 c-6 -14 -5 -15 5 -6 7 7 10 15 7 18 -3 3 -9 -2 -12 -12z"/>
<path d="M2412 1411 c-11 -7 -11 -9 0 -14 9 -3 15 1 15 9 0 8 -1 14 -1 14 -1
0 -7 -4 -14 -9z"/>
<path d="M1962 1378 c-7 -7 -12 -17 -12 -22 0 -6 5 -3 11 7 6 9 15 14 21 11 7
-4 8 -2 4 4 -9 15 -9 15 -24 0z"/>
<path d="M240 1368 c13 -16 13 -31 0 -23 -5 3 -10 1 -10 -4 0 -14 17 -14 26 0
3 6 -1 17 -10 25 -9 8 -11 9 -6 2z"/>
<path d="M3215 1359 c-3 -4 2 -6 10 -5 21 3 28 13 10 13 -9 0 -18 -4 -20 -8z"/>
<path d="M1911 1341 c-8 -5 -16 -17 -17 -25 -1 -9 2 -14 7 -10 5 3 6 10 3 16
-5 8 -1 9 10 5 9 -4 15 -3 11 2 -3 5 1 12 7 14 7 3 9 6 3 6 -5 0 -16 -3 -24
-8z"/>
<path d="M2650 1339 c0 -5 5 -7 10 -4 6 3 10 8 10 11 0 2 -4 4 -10 4 -5 0 -10
-5 -10 -11z"/>
<path d="M3187 1333 c-6 -11 -3 -46 6 -60 4 -6 4 -18 1 -26 -3 -8 -1 -18 4
-21 11 -7 11 69 0 80 -13 12 -9 22 10 27 15 4 15 5 0 6 -9 0 -19 -2 -21 -6z"/>
<path d="M3236 1327 c3 -10 9 -15 12 -12 3 3 0 11 -7 18 -10 9 -11 8 -5 -6z"/>
<path d="M2266 1318 c3 -5 10 -6 15 -3 13 9 11 12 -6 12 -8 0 -12 -4 -9 -9z"/>
<path d="M215 1310 c-3 -6 1 -7 9 -4 18 7 21 14 7 14 -6 0 -13 -4 -16 -10z"/>
<path d="M2695 1300 c-4 -6 -11 -7 -18 -3 -6 3 -1 -7 11 -24 26 -37 28 -51 5
-32 -15 13 -15 12 -5 -7 6 -12 10 -23 9 -25 -1 -2 4 2 11 11 7 8 9 21 6 30 -4
8 -7 25 -7 38 -1 25 -3 27 -12 12z"/>
<path d="M1906 1292 c-3 -5 1 -9 9 -9 8 0 12 4 9 9 -3 4 -7 8 -9 8 -2 0 -6 -4
-9 -8z"/>
<path d="M200 1268 c-10 -21 -10 -21 3 -6 11 14 16 15 27 5 12 -10 12 -9 1 6
-17 22 -18 22 -31 -5z"/>
<path d="M1085 1271 c-2 -4 -18 -7 -34 -6 -34 2 -52 -23 -26 -37 8 -5 12 -14
9 -20 -5 -7 -2 -8 5 -4 9 6 8 13 -5 27 -16 18 -16 19 5 19 12 0 19 -4 16 -10
-3 -5 -1 -10 5 -10 7 0 10 7 6 18 -4 10 3 6 18 -10 l25 -28 15 22 c10 15 12
26 6 32 -13 13 -39 16 -45 7z m37 -19 c-7 -2 -10 -8 -6 -13 8 -14 -12 -11 -25
4 -14 18 -5 26 22 19 12 -3 16 -7 9 -10z"/>
<path d="M3221 1244 c0 -11 3 -14 6 -6 3 7 2 16 -1 19 -3 4 -6 -2 -5 -13z"/>
<path d="M174 1218 c-3 -4 5 -5 17 -3 30 6 36 14 9 12 -12 -1 -24 -5 -26 -9z"/>
<path d="M870 1221 c0 -6 4 -13 10 -16 6 -3 7 1 4 9 -7 18 -14 21 -14 7z"/>
<path d="M3250 1220 c0 -5 5 -10 11 -10 5 0 7 5 4 10 -3 6 -8 10 -11 10 -2 0
-4 -4 -4 -10z"/>
<path d="M1070 1209 c0 -5 5 -7 10 -4 6 3 10 8 10 11 0 2 -4 4 -10 4 -5 0 -10
-5 -10 -11z"/>
<path d="M840 1206 c0 -2 7 -7 16 -10 8 -3 12 -2 9 4 -6 10 -25 14 -25 6z"/>
<path d="M1860 1201 c0 -9 30 -24 36 -18 2 1 -6 8 -16 15 -11 7 -20 8 -20 3z"/>
<path d="M1900 1200 c8 -5 20 -10 25 -10 6 0 3 5 -5 10 -8 5 -19 10 -25 10 -5
0 -3 -5 5 -10z"/>
<path d="M1115 1189 c-11 -16 -1 -19 13 -3 7 8 8 14 3 14 -5 0 -13 -5 -16 -11z"/>
<path d="M2702 1191 c-10 -6 -10 -10 3 -21 13 -11 14 -10 9 5 -6 14 -4 16 6
10 9 -5 11 -4 6 3 -8 14 -7 14 -24 3z"/>
<path d="M827 1179 c7 -7 15 -10 18 -7 3 3 -2 9 -12 12 -14 6 -15 5 -6 -5z"/>
<path d="M694 1165 c-16 -13 -16 -14 -1 -9 9 3 17 1 17 -5 0 -8 6 -8 20 1 14
9 16 14 7 20 -17 11 -21 10 -43 -7z"/>
<path d="M2676 1167 c3 -10 9 -15 12 -12 3 3 0 11 -7 18 -10 9 -11 8 -5 -6z"/>
<path d="M1887 1153 c3 -7 6 -13 8 -13 2 0 5 6 8 13 3 8 -1 14 -8 14 -7 0 -11
-6 -8 -14z"/>
<path d="M736 1141 c-4 -5 3 -7 14 -4 23 6 26 13 6 13 -8 0 -17 -4 -20 -9z"/>
<path d="M2655 1140 c-3 -5 -1 -10 4 -10 6 0 11 5 11 10 0 6 -2 10 -4 10 -3 0
-8 -4 -11 -10z"/>
<path d="M2699 1148 c0 -2 -2 -12 -3 -24 -2 -17 2 -20 18 -17 17 4 18 3 6 -6
-11 -8 -12 -11 -2 -11 7 0 10 -5 7 -10 -4 -6 -10 -8 -15 -5 -5 3 -12 1 -15 -5
-4 -6 -3 -10 2 -9 21 4 25 -2 8 -14 -14 -11 -15 -16 -5 -22 9 -5 11 -4 6 3 -4
7 -1 12 9 12 11 0 15 5 12 15 -4 8 -2 17 3 20 13 8 6 34 -16 51 -19 15 -18 15
4 11 12 -3 20 -1 16 4 -4 8 -33 13 -35 7z"/>
<path d="M3237 1135 c-4 -8 -3 -16 1 -19 4 -3 9 4 9 15 2 23 -3 25 -10 4z"/>
<path d="M191 1127 c2 -1 13 -9 24 -17 19 -14 19 -14 6 3 -7 9 -18 17 -24 17
-6 0 -8 -1 -6 -3z"/>
<path d="M700 1120 c-12 -7 -10 -9 7 -7 12 0 19 5 17 9 -6 10 -6 10 -24 -2z"/>
<path d="M1890 1120 c0 -5 5 -10 11 -10 5 0 7 5 4 10 -3 6 -8 10 -11 10 -2 0
-4 -4 -4 -10z"/>
<path d="M1173 1095 c0 -8 4 -12 9 -9 5 3 6 10 3 15 -9 13 -12 11 -12 -6z"/>
<path d="M253 1085 c0 -7 7 -11 15 -7 11 4 13 1 7 -8 -5 -9 -4 -11 3 -6 16 10
15 14 -6 25 -14 7 -19 6 -19 -4z"/>
<path d="M3224 1078 l-19 -23 23 19 c12 11 22 21 22 23 0 8 -8 2 -26 -19z"/>
<path d="M1799 1081 c11 -7 11 -9 0 -13 -8 -3 4 -5 26 -5 22 0 31 2 20 4 -11
3 -24 9 -29 14 -6 5 -15 9 -20 9 -6 0 -5 -4 3 -9z"/>
<path d="M300 1065 c-10 -12 -9 -16 6 -21 11 -4 22 -9 26 -11 4 -2 5 3 2 11
-3 9 -12 12 -22 8 -15 -5 -15 -4 -3 11 7 9 11 17 8 17 -2 0 -10 -7 -17 -15z"/>
<path d="M340 1061 c0 -6 4 -13 10 -16 6 -3 7 1 4 9 -7 18 -14 21 -14 7z"/>
<path d="M1227 1039 c3 -11 11 -18 17 -16 17 6 13 30 -5 32 -12 2 -15 -3 -12
-16z"/>
<path d="M3226 1044 c-4 -9 -4 -19 -1 -22 3 -3 5 0 5 7 0 7 4 10 8 7 5 -3 9 1
9 9 0 20 -13 19 -21 -1z"/>
<path d="M402 1034 c-7 -8 -8 -14 -3 -14 10 0 25 19 20 25 -2 1 -10 -3 -17
-11z"/>
<path d="M440 1030 c-8 -5 -11 -13 -6 -17 5 -4 11 -2 13 5 3 6 10 9 15 6 7 -4
8 -2 4 4 -9 14 -7 14 -26 2z"/>
<path d="M2737 1033 c-10 -9 -9 -23 1 -23 5 0 9 7 9 15 0 17 -1 18 -10 8z"/>
<path d="M470 1010 c-8 -5 -10 -10 -5 -10 6 0 17 5 25 10 8 5 11 10 5 10 -5 0
-17 -5 -25 -10z"/>
<path d="M276 998 c3 -5 10 -6 15 -3 13 9 11 12 -6 12 -8 0 -12 -4 -9 -9z"/>
<path d="M393 993 c0 -9 4 -10 14 -2 7 6 13 12 13 14 0 1 -6 2 -13 2 -8 0 -14
-6 -14 -14z"/>
<path d="M1195 1001 c-3 -5 -2 -12 3 -15 5 -3 9 1 9 9 0 17 -3 19 -12 6z"/>
<path d="M2713 995 c0 -8 4 -15 9 -15 4 0 8 4 8 9 0 6 -4 12 -8 15 -5 3 -9 -1
-9 -9z"/>
<path d="M356 982 c-3 -5 1 -9 9 -9 8 0 12 4 9 9 -3 4 -7 8 -9 8 -2 0 -6 -4
-9 -8z"/>
<path d="M455 980 c3 -5 8 -10 11 -10 2 0 4 5 4 10 0 6 -5 10 -11 10 -5 0 -7
-4 -4 -10z"/>
<path d="M605 980 c-3 -6 1 -7 9 -4 18 7 21 14 7 14 -6 0 -13 -4 -16 -10z"/>
<path d="M493 965 c0 -8 4 -12 9 -9 5 3 6 10 3 15 -9 13 -12 11 -12 -6z"/>
<path d="M1827 959 c7 -7 15 -10 18 -7 3 3 -2 9 -12 12 -14 6 -15 5 -6 -5z"/>
<path d="M2696 958 c3 -5 10 -6 15 -3 13 9 11 12 -6 12 -8 0 -12 -4 -9 -9z"/>
<path d="M2737 964 c7 -3 9 -13 6 -22 -4 -14 -3 -14 5 -2 12 16 7 30 -11 29
-9 0 -9 -2 0 -5z"/>
<path d="M1284 928 c-12 -18 -12 -78 -1 -78 5 0 7 7 3 15 -3 8 3 19 12 25 16
11 16 11 0 6 -21 -6 -22 -2 -8 25 12 21 6 27 -6 7z"/>
<path d="M2753 907 c0 -8 6 -14 14 -14 9 0 10 4 2 14 -6 7 -12 13 -14 13 -1 0
-2 -6 -2 -13z"/>
<path d="M2715 900 c3 -5 8 -10 11 -10 2 0 4 5 4 10 0 6 -5 10 -11 10 -5 0 -7
-4 -4 -10z"/>
<path d="M1784 886 c-10 -8 -17 -16 -14 -19 3 -2 14 4 24 14 23 22 18 25 -10
5z"/>
<path d="M3085 880 c3 -5 8 -10 11 -10 2 0 4 5 4 10 0 6 -5 10 -11 10 -5 0 -7
-4 -4 -10z"/>
<path d="M1230 866 c0 -2 7 -7 16 -10 8 -3 12 -2 9 4 -6 10 -25 14 -25 6z"/>
<path d="M2890 851 c0 -7 -4 -9 -10 -6 -5 3 -10 1 -10 -4 0 -6 4 -11 9 -11 13
0 25 20 17 27 -3 4 -6 1 -6 -6z"/>
<path d="M1295 840 c-4 -6 -4 -14 -1 -17 3 -4 6 -1 6 5 0 7 5 12 11 12 5 0 7
-4 4 -10 -3 -5 -1 -10 5 -10 14 0 8 22 -7 27 -6 2 -14 -1 -18 -7z"/>
<path d="M2760 840 c-9 -6 -10 -10 -3 -10 6 0 15 5 18 10 8 12 4 12 -15 0z"/>
<path d="M1675 830 c-3 -5 -1 -10 4 -10 6 0 11 5 11 10 0 6 -2 10 -4 10 -3 0
-8 -4 -11 -10z"/>
<path d="M2935 820 c3 -5 8 -10 11 -10 2 0 4 5 4 10 0 6 -5 10 -11 10 -5 0 -7
-4 -4 -10z"/>
<path d="M1620 795 c-7 -9 -10 -18 -7 -21 3 -3 10 4 17 15 13 25 8 27 -10 6z"/>
<path d="M1650 795 c0 -8 2 -15 4 -15 2 0 6 7 10 15 3 8 1 15 -4 15 -6 0 -10
-7 -10 -15z"/>
<path d="M1721 796 c-9 -11 -9 -16 1 -22 7 -4 10 -4 6 1 -4 4 -3 14 3 22 6 7
9 13 6 13 -2 0 -10 -6 -16 -14z"/>
<path d="M1670 778 c0 -4 4 -8 9 -8 6 0 12 4 15 8 3 5 -1 9 -9 9 -8 0 -15 -4
-15 -9z"/>
<path d="M1306 758 c3 -5 10 -6 15 -3 13 9 11 12 -6 12 -8 0 -12 -4 -9 -9z"/>
<path d="M1590 760 c0 -5 5 -10 11 -10 5 0 7 5 4 10 -3 6 -8 10 -11 10 -2 0
-4 -4 -4 -10z"/>
<path d="M1630 759 c0 -5 5 -7 10 -4 6 3 10 8 10 11 0 2 -4 4 -10 4 -5 0 -10
-5 -10 -11z"/>
<path d="M1555 739 c-4 -6 -4 -13 -1 -16 3 -4 6 -1 6 6 0 8 6 11 16 7 8 -3 12
-2 9 4 -8 13 -22 13 -30 -1z"/>
<path d="M1390 721 c0 -6 4 -13 10 -16 6 -3 7 1 4 9 -7 18 -14 21 -14 7z"/>
<path d="M1477 715 c-4 -8 -3 -16 1 -19 4 -3 9 4 9 15 2 23 -3 25 -10 4z"/>
<path d="M1455 681 c-3 -5 -2 -12 3 -15 5 -3 9 1 9 9 0 17 -3 19 -12 6z"/>
</g>
</svg>
